<svg width="366" height="130" viewBox="0 0 366 130" fill="none" xmlns="http://www.w3.org/2000/svg">
<g clip-path="url(#clip0_426_2)">
<path d="M107.385 53.5985C105.404 44.9083 100.578 42.2213 96.3178 39.8518C93.391 38.2248 90.8589 36.819 89.5854 33.7353C88.2224 30.4474 91.6707 27.0234 91.7078 26.9894C91.8046 26.8987 91.8121 26.7683 91.7302 26.6663C91.6482 26.5643 91.5068 26.5132 91.343 26.536C91.0524 26.5756 90.6801 26.6154 90.2408 26.6551C85.6978 27.1142 73.6401 28.3216 70.4676 40.6283C70.0504 42.2496 68.7621 43.5648 67.414 43.7519C66.5502 43.871 65.7383 43.5081 65.0829 42.6975C62.4763 39.4776 67.9503 34.0527 68.0099 33.996C68.1067 33.9053 68.114 33.7749 68.0322 33.6729C67.9503 33.5709 67.7938 33.5198 67.6449 33.5425C67.4884 33.5652 52.2286 35.9857 46.0323 47.8616C44.148 51.4726 38.8676 64.0969 49.9645 74.9354C61.091 85.8024 67.846 86.545 67.9949 86.6074C68.0471 86.6357 111.228 74.7654 107.385 53.5985Z" fill="url(#paint0_radial_426_2)"/>
<path opacity="0.8" d="M85.8538 45.5885C82.8972 41.2122 78.101 32.0347 90.732 27.0178C81.2364 28.316 74.258 33.4574 74.8241 42.1362C75.189 47.7936 79.3671 52.8389 81.3108 58.3034C83.9249 65.6897 81.9514 70.304 80.8119 73.7903C97.0177 65.6954 89.6446 51.1892 85.8538 45.5885Z" fill="url(#paint1_linear_426_2)"/>
<path d="M98.1874 47.9695C85.7873 47.9695 81.2369 57.6119 81.2369 57.6119C81.2369 57.6119 77.9749 47.9695 64.2564 47.9695C54.8725 47.9695 44.178 53.6267 48.1326 66.4947C52.0872 79.357 81.2666 95.3882 81.2666 95.3882C81.2666 95.3882 110.349 79.3627 114.304 66.5005C118.259 53.6267 108.324 47.9695 98.1874 47.9695Z" fill="url(#paint2_radial_426_2)"/>
<path d="M54.6493 54.8001C56.7718 52.7821 60.5626 51.1211 63.7724 53.0372C65.5077 54.0745 64.7482 56.206 63.199 57.1016C60.9351 58.4111 58.9614 59.199 57.5911 61.251C56.7644 62.4869 56.2655 63.8304 56.0123 65.2079C55.9155 65.752 54.977 65.8824 54.627 65.4062C52.2289 62.1751 51.5512 57.7422 54.6493 54.8001Z" fill="#FF7043"/>
<path d="M88.6689 59.0348C87.671 59.0348 86.971 58.3035 87.3358 57.5949C88.0135 56.2967 88.8775 55.0327 89.9276 53.9159C91.4766 52.2606 94.426 51.2969 96.2952 52.3002C98.2093 53.3263 97.9635 55.3783 96.6154 56.3647C93.7259 58.4906 90.0989 59.0348 88.6689 59.0348Z" fill="#FF7043"/>
<path d="M79.7547 94.5265C70.7433 93.6139 66.4982 91.7148 63.3776 86.7605C61.784 84.2264 61.7765 79.8956 61.7168 77.2142C61.6498 74.244 60.4731 71.6759 60.4731 71.6759C62.8265 71.9934 67.094 75.1396 69.0602 80.9556C72.4785 91.0517 79.7547 94.5265 79.7547 94.5265Z" fill="url(#paint3_linear_426_2)"/>
<path d="M111.228 71.6759C111.228 71.6759 117.998 68.6998 119.673 61.5345C120.768 56.8578 119.465 52.1868 113.574 47.6009C111.481 45.9683 104.637 41.9945 107.266 35.1467C107.266 35.1467 100.831 39.3019 103.013 46.7959C105.471 55.2367 115.935 58.1333 111.228 71.6759Z" fill="url(#paint4_linear_426_2)"/>
<path d="M106.059 62.0902C107.869 62.5777 115.198 71.2679 108.383 80.3945C102.321 88.512 90.4717 89.7706 90.4717 89.7706C90.4717 89.7706 99.8259 82.6393 103.483 75.8708C106.789 69.7657 106.059 62.0902 106.059 62.0902Z" fill="url(#paint5_linear_426_2)"/>
<g style="mix-blend-mode:saturation">
<path d="M78.4765 86.6742C66.9719 86.6742 54.5601 80.1216 54.5601 65.7436C54.5601 51.3656 66.9719 44.813 78.4765 44.813C84.8679 44.813 90.7647 46.7225 95.1355 50.2047C99.8777 54.024 102.393 59.4157 102.393 65.7436C102.393 72.0715 99.8777 77.4258 95.1355 81.2451C90.7647 84.7272 84.8267 86.6742 78.4765 86.6742Z" fill="url(#paint6_radial_426_2)"/>
<path d="M98.2239 53.3013C100.422 56.5215 101.568 60.3557 101.568 64.6204C101.568 70.9483 99.0529 76.3026 94.3108 80.1217C89.9398 83.604 84.002 85.551 77.6517 85.551C70.2047 85.551 62.3946 82.7989 57.7847 76.9616C62.2215 83.5739 70.5675 86.6742 78.4764 86.6742C84.8266 86.6742 90.7646 84.7273 95.1354 81.2451C99.8777 77.4258 102.393 72.0715 102.393 65.7436C102.393 60.9735 100.962 56.7349 98.2239 53.3013Z" fill="#EB8F00"/>
<path d="M94.1872 69.2295C93.6101 68.286 92.3565 67.8703 91.2432 68.2559C87.5319 69.3043 82.996 69.6901 78.4271 69.6937C74.0192 69.7087 69.6317 69.1509 65.401 68.0276C64.2875 67.6418 63.0341 68.0575 62.4567 69.001C61.8959 69.9409 62.3042 71.0305 62.7743 71.9703C65.4464 77.2573 71.2604 80.4175 78.3941 80.4362H78.4601C85.5938 80.4362 91.2184 77.4782 93.8699 72.1987C94.3399 71.259 94.7481 70.1694 94.1872 69.2295Z" fill="white"/>
<path d="M72.4561 63.4933L72.3942 63.4183L72.2169 63.2124L71.9984 62.999C71.9076 62.9054 71.8005 62.8155 71.6973 62.7181C71.5943 62.6209 71.4664 62.5273 71.351 62.4487C71.2437 62.3737 71.1284 62.3026 71.0046 62.2464C70.9222 62.2052 70.8314 62.1715 70.7365 62.1527C70.7076 62.1491 70.6789 62.1491 70.65 62.1527C70.65 62.1527 70.6253 62.1527 70.6129 62.1527H70.5799H70.6913H70.4643C70.4439 62.1527 70.4026 62.1527 70.4643 62.1527H70.4973H70.4521C70.3572 62.1715 70.2664 62.2014 70.18 62.2464C70.0603 62.3063 69.9408 62.3737 69.8335 62.4487C69.714 62.531 69.5985 62.6209 69.4914 62.7181C69.2726 62.9091 69.0789 63.0926 68.9553 63.2387L68.7408 63.4632L68.6459 63.5644C68.0522 64.1672 67.0502 64.2646 66.3286 63.7928C65.8667 63.5008 65.6317 62.9952 65.7223 62.4898C65.7223 62.4898 65.7512 62.34 65.8296 62.0741C65.9532 61.696 66.1265 61.329 66.3451 60.9845C66.6955 60.4229 67.1697 59.9324 67.7388 59.543C68.114 59.2809 68.5306 59.0712 68.9759 58.9251C69.0995 58.8802 69.2274 58.8465 69.3552 58.8166C69.4914 58.7792 69.6273 58.7529 69.7675 58.7305L70.019 58.6969L70.2293 58.6743H70.4563H70.7819H70.9922C71.1325 58.6743 71.2685 58.708 71.4047 58.7268C71.6684 58.768 71.9323 58.8317 72.1839 58.9178C72.6292 59.0637 73.0458 59.2734 73.421 59.5355C73.9901 59.925 74.4643 60.4154 74.8147 60.977C74.9426 61.1718 75.0539 61.3777 75.1446 61.5873C75.2231 61.756 75.2889 61.9245 75.3425 62.1004C75.3714 62.1903 75.3962 62.2802 75.4086 62.3699V62.4635C75.5322 63.2275 74.9467 63.9387 74.1055 64.0512C74.0848 64.0549 74.0642 64.0549 74.0437 64.0587C73.4416 64.1373 72.8397 63.9201 72.4561 63.4933Z" fill="#422B0D"/>
<path d="M88.7278 63.4933L88.6617 63.4183L88.4845 63.2124L88.2659 62.999C88.1752 62.9054 88.068 62.8155 87.9649 62.7181C87.8619 62.6209 87.734 62.5273 87.6186 62.4487C87.5113 62.3737 87.3959 62.3026 87.2721 62.2464C87.1898 62.2052 87.099 62.1715 87.0041 62.1527C86.9754 62.1491 86.9465 62.1491 86.9176 62.1527C86.9176 62.1527 86.8929 62.1527 86.8805 62.1527H86.8475H86.9589H86.7321C86.7115 62.1527 86.6702 62.1527 86.7321 62.1527H86.7649H86.7197C86.6248 62.1715 86.534 62.2014 86.4475 62.2464C86.3279 62.3026 86.2125 62.3737 86.1052 62.4487C85.9816 62.531 85.866 62.6209 85.7589 62.7181C85.5404 62.9091 85.3464 63.0926 85.2228 63.2387L85.0084 63.4632L84.9176 63.5644C84.3198 64.1672 83.3219 64.2646 82.5961 63.7928C82.1343 63.5008 81.8993 62.9952 81.9899 62.4898C81.9899 62.4898 82.0188 62.34 82.1013 62.0741C82.2249 61.6923 82.3941 61.3252 82.6168 60.9845C82.9672 60.4229 83.4373 59.9324 84.0064 59.543C84.3815 59.2809 84.7981 59.0712 85.2435 58.9251C85.3671 58.8802 85.495 58.8465 85.6227 58.8166C85.7589 58.7792 85.8949 58.7529 86.035 58.7305L86.2907 58.6969L86.4971 58.6743H86.7238H87.0495H87.2598C87.4001 58.6743 87.5361 58.708 87.6722 58.7268C87.9401 58.768 88.1999 58.8317 88.4515 58.9178C88.8968 59.0637 89.3134 59.2734 89.6885 59.5355C90.2577 59.925 90.7319 60.4154 91.0823 60.977C91.2102 61.1718 91.3214 61.3777 91.4122 61.5873C91.4906 61.7522 91.5565 61.9207 91.6101 62.0929C91.639 62.1828 91.6638 62.2727 91.6761 62.3625V62.456C91.808 63.2199 91.2308 63.9352 90.3895 64.0549C90.3772 64.0549 90.3648 64.0587 90.3524 64.0587C89.7381 64.1523 89.1155 63.9352 88.7278 63.4933Z" fill="#422B0D"/>
<path d="M93.8535 70.5851C93.8164 70.6075 91.2968 72.3186 86.5589 73.427V69.196C86.0187 69.2708 85.4662 69.3345 84.9095 69.3906V73.764C82.9921 74.1084 81.0416 74.2994 79.087 74.3369V69.6865H78.4355C78.1017 69.6865 77.7717 69.6865 77.4376 69.6865V74.3369C77.6151 74.3406 77.6151 74.3444 77.4376 74.3444L77.4294 74.3369C75.5202 74.307 73.6192 74.1421 71.7389 73.8388V69.2746C71.1781 69.2072 70.6298 69.1285 70.0895 69.0424V73.5242C65.2155 72.4722 62.7662 70.791 62.7332 70.7648C62.597 70.6674 62.428 70.6112 62.2549 70.6075C62.3702 71.0794 62.5436 71.5398 62.7745 71.9779C62.9187 72.2662 63.0754 72.5433 63.2404 72.8205C65.397 73.8576 67.702 74.614 70.0895 75.0669V75.0745V78.7588C70.6256 78.9947 71.1781 79.2081 71.7389 79.3916V75.3665C73.6192 75.6511 75.5243 75.8083 77.4294 75.8346L77.4376 75.842C77.4335 75.842 77.4335 75.842 77.4294 75.842V80.4139C77.7469 80.4139 78.0686 80.4438 78.3943 80.4438H78.4603H79.0788V75.8346C81.0333 75.8008 82.9838 75.6211 84.9095 75.2992V79.4966C85.4704 79.3242 86.0228 79.122 86.5589 78.8936V74.9808C89.0743 74.4566 91.4949 73.5992 93.738 72.4384C93.7792 72.3561 93.8287 72.2812 93.87 72.1989C94.1709 71.6448 94.3688 71.0493 94.4472 70.4352C94.2369 70.4128 94.0225 70.4691 93.8535 70.5851Z" fill="#B3B3B3"/>
<path d="M94.3563 69.0123C93.7706 68.065 92.5129 67.6456 91.3914 68.0276C87.1607 69.1471 82.7732 69.705 78.3692 69.6864C73.9612 69.705 69.5737 69.1471 65.3431 68.0276C64.2339 67.6456 62.9803 68.0575 62.4029 69.001C61.8423 69.9409 62.2463 71.0305 62.7205 71.9703C62.9308 72.3935 63.1658 72.809 63.4256 73.2097C63.4256 73.2097 62.5597 70.2967 63.3101 69.4504C63.5657 69.0909 63.9947 68.8662 64.4648 68.8438C64.6586 68.8438 64.8482 68.8737 65.0337 68.9262C69.3387 70.0758 73.8044 70.656 78.2951 70.6487H78.4393C82.9298 70.656 87.3957 70.0758 91.7007 68.9262C91.8862 68.8737 92.0759 68.8438 92.2696 68.8438C92.7397 68.8662 93.1728 69.0909 93.4283 69.4504C94.1912 70.2967 93.3129 73.221 93.3129 73.221C93.5686 72.8203 93.8243 72.4084 94.0387 71.9815C94.5088 71.0418 94.9169 69.9558 94.3563 69.0123Z" fill="#EB8F00"/>
</g>
<g filter="url(#filter0_dddddd_426_2)">
<path d="M148.806 61.5345H159.114V75.791C157.5 76.3068 155.873 76.6871 154.231 76.9315C152.59 77.1759 150.726 77.2981 148.639 77.2981C145.551 77.2981 142.95 76.7008 140.836 75.5059C138.721 74.2839 137.107 72.5594 135.995 70.3328C134.91 68.0788 134.367 65.4178 134.367 62.3492C134.367 59.3079 134.979 56.6736 136.203 54.447C137.428 52.2204 139.18 50.4959 141.461 49.274C143.771 48.0249 146.553 47.4003 149.808 47.4003C151.477 47.4003 153.049 47.5495 154.523 47.8483C156.026 48.1471 157.417 48.5678 158.696 49.111L157.278 52.2882C156.22 51.8264 155.024 51.4328 153.689 51.1069C152.381 50.7811 151.018 50.6181 149.599 50.6181C147.234 50.6181 145.203 51.0932 143.506 52.0438C141.809 52.9943 140.516 54.3519 139.625 56.1171C138.735 57.8549 138.29 59.9323 138.29 62.3492C138.29 64.6573 138.665 66.7076 139.417 68.4998C140.196 70.265 141.406 71.6499 143.047 72.6546C144.689 73.6322 146.845 74.121 149.516 74.121C150.406 74.121 151.185 74.0939 151.852 74.0395C152.548 73.958 153.174 73.8629 153.73 73.7544C154.315 73.6458 154.857 73.537 155.358 73.4285V64.7932H148.806V61.5345ZM184.425 55.058V76.8908H181.421L180.878 73.9988H180.711C180.238 74.759 179.626 75.3837 178.875 75.8725C178.124 76.3613 177.303 76.7142 176.413 76.9315C175.522 77.1759 174.591 77.2981 173.617 77.2981C171.836 77.2981 170.334 77.0267 169.11 76.4834C167.914 75.9132 167.009 75.0441 166.397 73.8766C165.785 72.709 165.479 71.2019 165.479 69.3552V55.058H169.193V69.1108C169.193 70.8487 169.597 72.1521 170.404 73.0212C171.21 73.8903 172.462 74.3246 174.159 74.3246C175.829 74.3246 177.136 74.0258 178.082 73.4285C179.056 72.8038 179.737 71.9077 180.127 70.7401C180.544 69.5452 180.753 68.1062 180.753 66.4225V55.058H184.425ZM200.165 54.6507C202.084 54.6507 203.726 55.058 205.089 55.8727C206.48 56.6873 207.537 57.8415 208.26 59.3349C209.012 60.8013 209.387 62.5258 209.387 64.508V66.6669H194.072C194.128 69.1379 194.767 71.0253 195.992 72.3287C197.243 73.6051 198.982 74.2432 201.208 74.2432C202.627 74.2432 203.879 74.121 204.964 73.8766C206.076 73.6051 207.217 73.2248 208.386 72.736V75.8725C207.245 76.3613 206.118 76.7142 205.005 76.9315C203.893 77.1759 202.571 77.2981 201.041 77.2981C198.927 77.2981 197.049 76.8771 195.407 76.0354C193.794 75.1937 192.528 73.9443 191.61 72.288C190.719 70.6043 190.274 68.5543 190.274 66.1373C190.274 63.7478 190.678 61.6975 191.485 59.9867C192.319 58.2759 193.474 56.9588 194.948 56.0356C196.451 55.1124 198.189 54.6507 200.165 54.6507ZM200.123 57.5834C198.37 57.5834 196.979 58.14 195.95 59.2535C194.948 60.3396 194.35 61.8604 194.155 63.8156H205.548C205.548 62.5665 205.353 61.4801 204.964 60.5569C204.574 59.6338 203.976 58.9139 203.169 58.3981C202.39 57.8549 201.375 57.5834 200.123 57.5834ZM229.646 70.8623C229.646 72.2743 229.284 73.4556 228.561 74.4061C227.837 75.3566 226.808 76.0761 225.473 76.5649C224.137 77.0537 222.551 77.2981 220.715 77.2981C219.157 77.2981 217.808 77.1759 216.667 76.9315C215.555 76.6871 214.567 76.3476 213.704 75.9132V72.6546C214.595 73.089 215.666 73.4963 216.918 73.8766C218.197 74.2295 219.491 74.4061 220.799 74.4061C222.663 74.4061 224.012 74.121 224.847 73.5507C225.681 72.9534 226.098 72.1658 226.098 71.1882C226.098 70.645 225.946 70.1562 225.639 69.7218C225.333 69.2874 224.777 68.8527 223.97 68.4184C223.191 67.984 222.065 67.4952 220.59 66.952C219.143 66.4088 217.905 65.8659 216.876 65.3227C215.847 64.7795 215.054 64.1278 214.497 63.3675C213.941 62.6073 213.663 61.6297 213.663 60.4348C213.663 58.5881 214.428 57.1624 215.958 56.1578C217.516 55.1532 219.547 54.6507 222.051 54.6507C223.414 54.6507 224.68 54.7866 225.848 55.058C227.044 55.3024 228.157 55.6553 229.187 56.1171L227.935 58.9684C227.323 58.6969 226.669 58.4659 225.973 58.2759C225.306 58.0586 224.624 57.8956 223.928 57.7871C223.233 57.6512 222.524 57.5834 221.8 57.5834C220.298 57.5834 219.143 57.8279 218.337 58.3166C217.558 58.7784 217.168 59.4164 217.168 60.2311C217.168 60.8284 217.349 61.3446 217.711 61.7789C218.072 62.1863 218.67 62.5936 219.505 63.0009C220.367 63.3812 221.508 63.8426 222.927 64.3858C224.346 64.9017 225.556 65.4312 226.558 65.9744C227.559 66.5176 228.324 67.1827 228.853 67.9703C229.381 68.7306 229.646 69.6948 229.646 70.8623ZM249.615 70.8623C249.615 72.2743 249.253 73.4556 248.53 74.4061C247.806 75.3566 246.777 76.0761 245.441 76.5649C244.106 77.0537 242.52 77.2981 240.684 77.2981C239.126 77.2981 237.777 77.1759 236.636 76.9315C235.523 76.6871 234.536 76.3476 233.673 75.9132V72.6546C234.564 73.089 235.635 73.4963 236.887 73.8766C238.166 74.2295 239.46 74.4061 240.768 74.4061C242.631 74.4061 243.981 74.121 244.815 73.5507C245.65 72.9534 246.067 72.1658 246.067 71.1882C246.067 70.645 245.915 70.1562 245.608 69.7218C245.302 69.2874 244.746 68.8527 243.939 68.4184C243.16 67.984 242.034 67.4952 240.559 66.952C239.112 66.4088 237.874 65.8659 236.845 65.3227C235.816 64.7795 235.023 64.1278 234.466 63.3675C233.91 62.6073 233.632 61.6297 233.632 60.4348C233.632 58.5881 234.397 57.1624 235.927 56.1578C237.485 55.1532 239.516 54.6507 242.02 54.6507C243.383 54.6507 244.649 54.7866 245.817 55.058C247.013 55.3024 248.126 55.6553 249.156 56.1171L247.904 58.9684C247.292 58.6969 246.638 58.4659 245.942 58.2759C245.275 58.0586 244.593 57.8956 243.897 57.7871C243.202 57.6512 242.493 57.5834 241.769 57.5834C240.267 57.5834 239.112 57.8279 238.305 58.3166C237.527 58.7784 237.137 59.4164 237.137 60.2311C237.137 60.8284 237.318 61.3446 237.679 61.7789C238.041 62.1863 238.639 62.5936 239.474 63.0009C240.336 63.3812 241.477 63.8426 242.896 64.3858C244.315 64.9017 245.525 65.4312 246.526 65.9744C247.528 66.5176 248.293 67.1827 248.822 67.9703C249.35 68.7306 249.615 69.6948 249.615 70.8623ZM268.667 76.8908L258.86 51.3921H258.69C258.746 51.9353 258.788 52.6277 258.818 53.4694C258.873 54.3111 258.915 55.2346 258.941 56.2393C258.971 57.2169 258.984 58.2215 258.984 59.2535V76.8908H255.521V47.8076H261.07L270.251 71.6362H270.417L279.765 47.8076H285.274V76.8908H281.561V59.0091C281.561 58.0586 281.574 57.1217 281.603 56.1985C281.629 55.248 281.672 54.3656 281.727 53.5509C281.783 52.7092 281.825 52.0031 281.851 51.4328H281.685L271.754 76.8908H268.667ZM312.325 65.9337C312.325 67.753 312.077 69.3689 311.575 70.7809C311.102 72.1658 310.407 73.347 309.488 74.3246C308.598 75.3022 307.499 76.0491 306.192 76.5649C304.911 77.0537 303.48 77.2981 301.892 77.2981C300.418 77.2981 299.055 77.0537 297.803 76.5649C296.551 76.0491 295.466 75.3022 294.546 74.3246C293.63 73.347 292.907 72.1658 292.378 70.7809C291.876 69.3689 291.629 67.753 291.629 65.9337C291.629 63.5167 292.046 61.4801 292.88 59.8237C293.715 58.14 294.908 56.8639 296.467 55.9949C298.025 55.0987 299.877 54.6507 302.019 54.6507C304.05 54.6507 305.83 55.0987 307.359 55.9949C308.918 56.8639 310.127 58.14 310.991 59.8237C311.881 61.4801 312.325 63.5167 312.325 65.9337ZM295.423 65.9337C295.423 67.6444 295.648 69.1379 296.092 70.4143C296.565 71.6633 297.288 72.6275 298.263 73.3063C299.235 73.9851 300.474 74.3246 301.977 74.3246C303.48 74.3246 304.715 73.9851 305.69 73.3063C306.665 72.6275 307.372 71.6633 307.819 70.4143C308.292 69.1379 308.53 67.6444 308.53 65.9337C308.53 64.1958 308.292 62.7158 307.819 61.4938C307.346 60.2718 306.622 59.335 305.648 58.6832C304.702 58.0045 303.463 57.6649 301.934 57.6649C299.652 57.6649 297.999 58.3981 296.969 59.8645C295.939 61.3309 295.423 63.3538 295.423 65.9337ZM315.516 86.6666C314.822 86.6666 314.209 86.6122 313.681 86.5037C313.153 86.4223 312.693 86.3137 312.302 86.1779V83.2858C312.719 83.3944 313.153 83.4895 313.596 83.571C314.043 83.6524 314.528 83.6932 315.057 83.6932C315.947 83.6932 316.687 83.4488 317.27 82.96C317.854 82.4982 318.147 81.6021 318.147 80.2716V55.058H321.818V80.1494C321.818 81.5073 321.597 82.6748 321.15 83.6524C320.707 84.63 320.025 85.3769 319.106 85.8927C318.186 86.4086 316.99 86.6666 315.516 86.6666ZM317.854 49.1518C317.854 48.3641 318.063 47.7939 318.48 47.441C318.897 47.0607 319.412 46.8707 320.025 46.8707C320.579 46.8707 321.068 47.0607 321.486 47.441C321.929 47.7939 322.151 48.3641 322.151 49.1518C322.151 49.912 321.929 50.4823 321.486 50.8625C321.068 51.2428 320.579 51.4328 320.025 51.4328C319.412 51.4328 318.897 51.2428 318.48 50.8625C318.063 50.4823 317.854 49.912 317.854 49.1518ZM332.577 55.058V76.8908H328.906V55.058H332.577ZM330.784 46.8707C331.338 46.8707 331.827 47.0607 332.245 47.441C332.688 47.7939 332.91 48.3641 332.91 49.1518C332.91 49.912 332.688 50.4823 332.245 50.8625C331.827 51.2428 331.338 51.4328 330.784 51.4328C330.171 51.4328 329.656 51.2428 329.239 50.8625C328.821 50.4823 328.613 49.912 328.613 49.1518C328.613 48.3641 328.821 47.7939 329.239 47.441C329.656 47.0607 330.171 46.8707 330.784 46.8707Z" fill="white"/>
</g>
</g>
<defs>
<filter id="filter0_dddddd_426_2" x="-505.209" y="-592.705" width="1477.69" height="1318.95" filterUnits="userSpaceOnUse" color-interpolation-filters="sRGB">
<feFlood flood-opacity="0" result="BackgroundImageFix"/>
<feColorMatrix in="SourceAlpha" type="matrix" values="0 0 0 0 0 0 0 0 0 0 0 0 0 0 0 0 0 0 127 0" result="hardAlpha"/>
<feOffset/>
<feGaussianBlur stdDeviation="7.614"/>
<feColorMatrix type="matrix" values="0 0 0 0 1 0 0 0 0 0 0 0 0 0 0 0 0 0 1 0"/>
<feBlend mode="normal" in2="BackgroundImageFix" result="effect1_dropShadow_426_2"/>
<feColorMatrix in="SourceAlpha" type="matrix" values="0 0 0 0 0 0 0 0 0 0 0 0 0 0 0 0 0 0 127 0" result="hardAlpha"/>
<feOffset/>
<feGaussianBlur stdDeviation="15.228"/>
<feColorMatrix type="matrix" values="0 0 0 0 1 0 0 0 0 0 0 0 0 0 0 0 0 0 1 0"/>
<feBlend mode="normal" in2="effect1_dropShadow_426_2" result="effect2_dropShadow_426_2"/>
<feColorMatrix in="SourceAlpha" type="matrix" values="0 0 0 0 0 0 0 0 0 0 0 0 0 0 0 0 0 0 127 0" result="hardAlpha"/>
<feOffset/>
<feGaussianBlur stdDeviation="53.298"/>
<feColorMatrix type="matrix" values="0 0 0 0 1 0 0 0 0 0 0 0 0 0 0 0 0 0 1 0"/>
<feBlend mode="normal" in2="effect2_dropShadow_426_2" result="effect3_dropShadow_426_2"/>
<feColorMatrix in="SourceAlpha" type="matrix" values="0 0 0 0 0 0 0 0 0 0 0 0 0 0 0 0 0 0 127 0" result="hardAlpha"/>
<feOffset/>
<feGaussianBlur stdDeviation="106.596"/>
<feColorMatrix type="matrix" values="0 0 0 0 1 0 0 0 0 0 0 0 0 0 0 0 0 0 1 0"/>
<feBlend mode="normal" in2="effect3_dropShadow_426_2" result="effect4_dropShadow_426_2"/>
<feColorMatrix in="SourceAlpha" type="matrix" values="0 0 0 0 0 0 0 0 0 0 0 0 0 0 0 0 0 0 127 0" result="hardAlpha"/>
<feOffset/>
<feGaussianBlur stdDeviation="182.736"/>
<feColorMatrix type="matrix" values="0 0 0 0 1 0 0 0 0 0 0 0 0 0 0 0 0 0 1 0"/>
<feBlend mode="normal" in2="effect4_dropShadow_426_2" result="effect5_dropShadow_426_2"/>
<feColorMatrix in="SourceAlpha" type="matrix" values="0 0 0 0 0 0 0 0 0 0 0 0 0 0 0 0 0 0 127 0" result="hardAlpha"/>
<feOffset/>
<feGaussianBlur stdDeviation="319.788"/>
<feColorMatrix type="matrix" values="0 0 0 0 1 0 0 0 0 0 0 0 0 0 0 0 0 0 1 0"/>
<feBlend mode="normal" in2="effect5_dropShadow_426_2" result="effect6_dropShadow_426_2"/>
<feBlend mode="normal" in="SourceGraphic" in2="effect6_dropShadow_426_2" result="shape"/>
</filter>
<radialGradient id="paint0_radial_426_2" cx="0" cy="0" r="1" gradientUnits="userSpaceOnUse" gradientTransform="translate(74.9755 72.4704) scale(65.1395 50.4141)">
<stop offset="0.3903" stop-color="#FFD600"/>
<stop offset="0.6895" stop-color="#FF9800"/>
<stop offset="1" stop-color="#F44336"/>
</radialGradient>
<linearGradient id="paint1_linear_426_2" x1="82.5963" y1="55.9547" x2="83.2387" y2="29.1557" gradientUnits="userSpaceOnUse">
<stop offset="0.1645" stop-color="#FFEB3B"/>
<stop offset="1" stop-color="#FFD600"/>
</linearGradient>
<radialGradient id="paint2_radial_426_2" cx="0" cy="0" r="1" gradientUnits="userSpaceOnUse" gradientTransform="translate(81.2398 92.1978) scale(74.7993 56.9337)">
<stop offset="0.1189" stop-color="#FF6D00"/>
<stop offset="0.4848" stop-color="#F44336"/>
<stop offset="0.8142" stop-color="#B71C1C"/>
</radialGradient>
<linearGradient id="paint3_linear_426_2" x1="66.5631" y1="79.165" x2="73.2606" y2="105.892" gradientUnits="userSpaceOnUse">
<stop offset="0.0759" stop-color="#FFEB3B"/>
<stop offset="1" stop-color="#FFD600" stop-opacity="0"/>
</linearGradient>
<linearGradient id="paint4_linear_426_2" x1="103.706" y1="51.0203" x2="120.094" y2="63.2206" gradientUnits="userSpaceOnUse">
<stop stop-color="#FFD600"/>
<stop offset="1" stop-color="#FFD600" stop-opacity="0"/>
</linearGradient>
<linearGradient id="paint5_linear_426_2" x1="98.4425" y1="61.7241" x2="101.585" y2="104.392" gradientUnits="userSpaceOnUse">
<stop offset="0.1873" stop-color="#FFEB3B"/>
<stop offset="0.9339" stop-color="#FFD600" stop-opacity="0"/>
</linearGradient>
<radialGradient id="paint6_radial_426_2" cx="0" cy="0" r="1" gradientUnits="userSpaceOnUse" gradientTransform="translate(78.4765 65.7436) scale(23.4875 21.3274)">
<stop offset="0.5" stop-color="#FDE030"/>
<stop offset="0.92" stop-color="#F7C02B"/>
<stop offset="1" stop-color="#F4A223"/>
</radialGradient>
<clipPath id="clip0_426_2">
<rect width="366" height="130" fill="white"/>
</clipPath>
</defs>
</svg>
